<svg width="24" height="26" viewBox="0 0 24 26" fill="none" xmlns="http://www.w3.org/2000/svg">
<path d="M2.5 13.5L7.7942 8.64698C8.18887 8.28521 8.79845 8.29845 9.17703 8.67703L14 13.5" stroke="black"/>
<path d="M0.804991 15.2027C0.682176 14.302 1.38226 13.5 2.29124 13.5H13.7088C14.6177 13.5 15.3178 14.302 15.195 15.2027L14.2405 22.2027C14.1391 22.9459 13.5043 23.5 12.7542 23.5H3.24578C2.49568 23.5 1.86089 22.9459 1.75954 22.2027L0.804991 15.2027Z" stroke="black"/>
<circle cx="13.5" cy="22.5" r="3" fill="#F6C02B" stroke="black"/>
<circle cx="12.5" cy="22.5" r="0.5" fill="black"/>
<circle cx="14.5" cy="22.5" r="0.5" fill="black"/>
<circle cx="17" cy="7" r="7" fill="#E7641E"/>
<path d="M18.1992 9H14.4727V8.48047L16.4414 6.29297C16.7331 5.96224 16.9336 5.69401 17.043 5.48828C17.1549 5.27995 17.2109 5.0651 17.2109 4.84375C17.2109 4.54688 17.1211 4.30339 16.9414 4.11328C16.7617 3.92318 16.5221 3.82812 16.2227 3.82812C15.8633 3.82812 15.5833 3.93099 15.3828 4.13672C15.1849 4.33984 15.0859 4.6237 15.0859 4.98828H14.3633C14.3633 4.46484 14.5312 4.04167 14.8672 3.71875C15.2057 3.39583 15.6576 3.23438 16.2227 3.23438C16.7513 3.23438 17.1693 3.3737 17.4766 3.65234C17.7839 3.92839 17.9375 4.29688 17.9375 4.75781C17.9375 5.31771 17.5807 5.98438 16.8672 6.75781L15.3438 8.41016H18.1992V9Z" fill="white"/>
</svg>
