<svg width="29" height="27" viewBox="0 0 29 27" fill="none" xmlns="http://www.w3.org/2000/svg">
<path d="M11.5 26C12.3284 26 13 25.3284 13 24.5C13 23.6716 12.3284 23 11.5 23C10.6716 23 10 23.6716 10 24.5C10 25.3284 10.6716 26 11.5 26Z" stroke="black" stroke-linecap="round" stroke-linejoin="round"/>
<path d="M22.5 26C23.3284 26 24 25.3284 24 24.5C24 23.6716 23.3284 23 22.5 23C21.6716 23 21 23.6716 21 24.5C21 25.3284 21.6716 26 22.5 26Z" stroke="black" stroke-linecap="round" stroke-linejoin="round"/>
<path d="M1 1H5L9.89454 14.39C10.0026 14.8504 10.2986 15.264 10.7307 15.5583M10.7307 15.5583C11.1629 15.8526 11.7036 16.009 12.2582 16L23.8636 14.39C24.2066 14.3455 24.3115 14.2683 24.4545 14L28 6H6.82769M10.7307 15.5583C10.7307 17.2929 10.1398 20 11.4545 20C12.7693 20 19.0951 20 24.4545 20" stroke="black" stroke-linecap="round" stroke-linejoin="round"/>
</svg>
